<svg width="40" height="40" viewBox="0 0 40 40" fill="none" xmlns="http://www.w3.org/2000/svg">
<circle cx="20" cy="20" r="20" fill="white"/>
<g clip-path="url(#clip0_1118_90)">
<path fill-rule="evenodd" clip-rule="evenodd" d="M22.0308 25.7415L27.7374 20.1241C28.0876 19.7794 28.0876 19.2206 27.7374 18.8759L22.0308 13.2585C21.6806 12.9138 21.1128 12.9138 20.7626 13.2585C20.4125 13.6032 20.4125 14.1621 20.7626 14.5068L25.3102 19.5002L20.7626 24.4932C20.4125 24.8379 20.4125 25.3968 20.7626 25.7415C21.1128 26.0862 21.6806 26.0862 22.0308 25.7415Z" fill="#ED6D05"/>
<path fill-rule="evenodd" clip-rule="evenodd" d="M14.5308 25.7415L20.2374 20.1241C20.5875 19.7794 20.5875 19.2206 20.2374 18.8759L14.5308 13.2585C14.1806 12.9138 13.6128 12.9138 13.2626 13.2585C12.9125 13.6032 12.9125 14.1621 13.2626 14.5068L17.8102 19.5002L13.2626 24.4932C12.9125 24.8379 12.9125 25.3968 13.2626 25.7415C13.6128 26.0862 14.1806 26.0862 14.5308 25.7415Z" fill="#ED6D05"/>
</g>
<defs>
<clipPath id="clip0_1118_90">
<rect width="15" height="13" fill="white" transform="translate(13 13)"/>
</clipPath>
</defs>
</svg>
