<svg width="13" height="13" viewBox="0 0 13 13" fill="none" xmlns="http://www.w3.org/2000/svg">
<circle cx="6.5" cy="6.5" r="6.5" fill="#0967FE"/>
<path d="M5.89311 9V4.63636L7.10334 4.63636V9H5.89311ZM6.50107 4.07386C6.32114 4.07386 6.16679 4.0142 6.038 3.89489C5.9111 3.77367 5.84766 3.62879 5.84766 3.46023C5.84766 3.29356 5.9111 3.15057 6.038 3.03125C6.16679 2.91004 6.32114 2.84943 6.50107 2.84943C6.68099 2.84943 6.8344 2.91004 6.96129 3.03125C7.09008 3.15057 7.15447 3.29356 7.15447 3.46023C7.15447 3.62879 7.09008 3.77367 6.96129 3.89489C6.8344 4.0142 6.68099 4.07386 6.50107 4.07386Z" fill="white"/>
</svg>
